<?xml version="1.0" encoding="UTF-8" standalone="no"?>
<svg xmlns="http://www.w3.org/2000/svg" version="1.1"
     width="200" height="200" viewBox="0 0 200 200">
  <rect width="200" height="200" fill="white"/>
  <path transform="matrix(0.923766,0,0,-0.923766,178.7987,100.0166)" style="fill:#1e2c59;fill-opacity:1;fill-rule:nonzero;stroke:none" d="m 0,0 c 0,-47.105 -38.192,-85.303 -85.307,-85.303 -47.116,0 -85.308,38.198 -85.308,85.303 0,47.116 38.192,85.31 85.308,85.31 C -38.192,85.31 0,47.116 0,0"/>
  <path transform="matrix(0.923766,0,0,-0.923766,173.3688,100.0166)" style="fill:none;stroke:#ffffff;stroke-width:2.697;stroke-linecap:butt;stroke-linejoin:miter;stroke-miterlimit:4;stroke-dasharray:none;stroke-opacity:1" d="m 0,0 c 0,-43.861 -35.558,-79.418 -79.429,-79.418 -43.871,0 -79.43,35.557 -79.43,79.418 0,43.872 35.559,79.431 79.43,79.431 C -35.558,79.431 0,43.872 0,0 Z"/>
  <path transform="matrix(0.923766,0,0,-0.923766,72.2363,78.2847)" style="fill:#ffffff;fill-opacity:1;fill-rule:nonzero;stroke:none" d="m 0,0 v 44.874 h 59.484 v 11.694 c -9.178,3.367 -19.088,5.216 -29.434,5.216 -14.673,0 -28.465,-3.706 -40.514,-10.212 V 0 h -25.724 l 10.222,-17.516 h 15.502 V -51.075 H 0 v 33.559 H 73.165 L 5.868,-105.329 c 7.674,-2.256 15.782,-3.498 24.182,-3.498 10.346,0 20.256,1.846 29.434,5.219 v 11.709 h -34 L 96.29,0 Z"/>
  <path transform="matrix(0.923766,0,0,-0.923766,99.9953,22.0149)" style="fill:#231916;fill-opacity:1;fill-rule:nonzero;stroke:none" d="m 0,0 c -46.56,0 -84.437,-37.881 -84.437,-84.439 0,-46.556 37.877,-84.433 84.437,-84.433 46.556,0 84.436,37.877 84.436,84.433 C 84.436,-37.881 46.556,0 0,0 m 0,-170.614 c -47.52,0 -86.18,38.657 -86.18,86.175 0,47.52 38.66,86.181 86.18,86.181 47.519,0 86.178,-38.661 86.178,-86.181 0,-47.518 -38.659,-86.175 -86.178,-86.175"/>
  <path transform="matrix(0.923766,0,0,-0.923766,7.7054,81.3555)" style="fill:#231916;fill-opacity:1;fill-rule:nonzero;stroke:none" d="M 0,0 C -0.896,-0.405 -1.683,-0.977 -2.308,-1.803 -2.985,-2.687 -3.349,-3.706 -3.45,-4.768 l -0.23,-2.4 C -3.762,-8 -3.314,-8.442 -2.392,-8.534 l 4.488,-0.433 0.302,3.144 C 2.456,-5.267 2.317,-4.785 1.99,-4.37 1.615,-4.019 1.109,-3.795 0.471,-3.736 L 0.527,-3.138 5.457,-3.61 5.398,-4.207 C 4.67,-4.145 4.112,-4.242 3.727,-4.544 3.324,-4.887 3.079,-5.34 3.021,-5.883 l -0.298,-3.15 4.83,-0.46 c 0.965,-0.101 1.534,0.29 1.615,1.177 l 0.079,0.823 0.647,-0.058 -0.65,-6.77 -0.652,0.068 0.08,0.802 c 0.08,0.845 -0.371,1.377 -1.279,1.468 l -10.019,0.97 c -0.932,0.095 -1.456,-0.337 -1.527,-1.096 l -0.09,-0.924 -0.645,0.065 1.189,12.404 3.607,1.161 z"/>
  <path transform="matrix(0.923766,0,0,-0.923766,9.6349,63.5915)" style="fill:#231916;fill-opacity:1;fill-rule:nonzero;stroke:none" d="m 0,0 c -0.28,-0.959 0.138,-1.598 1.229,-1.929 l 6.672,-1.973 c 1.703,-0.507 2.822,-1.523 3.325,-2.965 0.454,-1.346 0.454,-2.866 -0.006,-4.416 -0.517,-1.719 -1.398,-3.078 -2.598,-4.087 -1.106,-0.923 -2.711,-1.021 -4.801,-0.407 l -6.448,1.917 c -0.886,0.26 -1.51,-0.139 -1.769,-1.032 l -0.198,-0.634 -0.615,0.18 1.909,6.463 0.624,-0.181 -0.261,-0.88 c -0.247,-0.815 0.11,-1.352 0.997,-1.61 L 4.966,-13.6 c 1.398,-0.407 2.513,-0.471 3.399,-0.127 1.042,0.391 1.872,1.322 2.301,2.779 0.414,1.399 0.331,2.775 -0.097,4.101 -0.492,1.061 -1.441,1.892 -2.917,2.326 L 1.036,-2.557 C -0.04,-2.24 -0.766,-2.583 -1,-3.416 L -1.19,-4.06 -1.815,-3.873 -0.426,0.809 0.192,0.62 Z"/>
  <path transform="matrix(0.923766,0,0,-0.923766,26.1026,58.5532)" style="fill:#231916;fill-opacity:1;fill-rule:nonzero;stroke:none" d="m 0,0 -0.57,0.307 0.33,0.586 c 0.36,0.688 0.33,1.161 0.026,1.395 -0.249,0.131 -0.698,0.145 -1.307,0.047 l -6.526,-1.122 0.693,-2.92 3.189,-1.697 c 0.804,-0.433 1.45,-0.289 1.872,0.497 l 0.393,0.724 0.574,-0.307 -3.221,-5.993 -0.567,0.319 0.358,0.641 c 0.406,0.771 0.209,1.485 -0.587,1.918 l -8.941,4.797 c -0.789,0.408 -1.427,0.182 -1.812,-0.532 l -0.38,-0.736 -0.581,0.309 3.18,5.912 0.57,-0.301 -0.395,-0.731 c -0.394,-0.73 -0.191,-1.296 0.601,-1.72 l 4.915,-2.638 -1.763,7.721 c -0.204,0.551 -0.385,0.905 -0.574,1.062 -0.428,0.181 -0.85,-0.091 -1.216,-0.765 l -0.239,-0.455 -0.561,0.314 2.978,5.562 0.568,-0.3 C -9.375,11.177 -9.577,10.487 -9.677,9.8 -9.747,9.239 -9.703,8.552 -9.52,7.735 L -8.53,3.458 0.415,4.96 C 1.447,5.123 2.241,5.619 2.804,6.597 L 3.381,6.289 Z"/>
  <path transform="matrix(0.923766,0,0,-0.923766,29.1865,33.1461)" style="fill:#231916;fill-opacity:1;fill-rule:nonzero;stroke:none" d="m 0,0 c -0.642,-0.778 -0.503,-1.54 0.368,-2.249 l 5.36,-4.434 c 1.378,-1.126 1.999,-2.507 1.899,-4.033 -0.113,-1.431 -0.712,-2.812 -1.75,-4.063 -1.138,-1.387 -2.482,-2.295 -3.991,-2.733 -1.364,-0.412 -2.885,0.112 -4.566,1.51 l -5.173,4.278 c -0.721,0.591 -1.447,0.478 -2.048,-0.249 l -0.42,-0.506 -0.497,0.416 4.293,5.185 0.502,-0.413 -0.586,-0.71 C -7.161,-8.66 -7.031,-9.276 -6.32,-9.873 l 5.549,-4.578 c 1.115,-0.935 2.129,-1.419 3.064,-1.468 1.13,-0.033 2.255,0.496 3.218,1.666 0.922,1.11 1.396,2.42 1.522,3.804 -0.042,1.173 -0.583,2.317 -1.777,3.299 l -5.311,4.38 c -0.868,0.735 -1.663,0.693 -2.225,0.018 l -0.413,-0.511 -0.496,0.403 3.11,3.776 0.499,-0.41 z"/>
  <path transform="matrix(0.923766,0,0,-0.923766,47.4223,33.7888)" style="fill:#231916;fill-opacity:1;fill-rule:nonzero;stroke:none" d="m 0,0 -8.62,-7.414 -0.369,0.428 -1.283,16.009 -2.34,-2.004 c -1.056,-0.918 -1.674,-1.701 -1.916,-2.372 -0.326,-0.918 -0.454,-2.04 -0.343,-3.393 l -0.552,-0.286 -1.192,3.456 8.05,6.927 0.317,-0.36 1.466,-16.095 2.764,2.383 c 0.806,0.694 1.374,1.509 1.737,2.33 0.322,0.996 0.426,2.281 0.273,3.867 l 0.543,0.253 z"/>
  <path transform="matrix(0.923766,0,0,-0.923766,48.3439,18.8155)" style="fill:#231916;fill-opacity:1;fill-rule:nonzero;stroke:none" d="m 0,0 1.193,-7.755 5.329,3.211 z m 9.095,-9.629 -0.336,0.557 0.643,0.382 c 0.401,0.242 0.652,0.508 0.771,0.827 0.054,0.234 0.014,0.453 -0.112,0.663 -0.047,0.087 -0.18,0.223 -0.435,0.394 L 7.047,-4.959 1.289,-8.43 c 0.258,-1.471 0.415,-2.42 0.534,-2.819 0.061,-0.172 0.137,-0.34 0.222,-0.503 0.192,-0.308 0.385,-0.503 0.615,-0.553 0.34,-0.059 0.776,0.026 1.33,0.358 l 0.436,0.264 0.339,-0.554 -4.772,-2.872 -0.327,0.555 0.361,0.218 c 0.476,0.285 0.803,0.759 1.015,1.338 0.07,0.445 0.138,1.178 0,2.107 L -0.73,0.392 0.608,2.376 11.934,-5.503 c 0.851,-0.586 1.788,-0.528 2.725,-0.013 l 0.338,-0.556 z"/>
  <path transform="matrix(0.923766,0,0,-0.923766,74.4564,7.0749)" style="fill:#231916;fill-opacity:1;fill-rule:nonzero;stroke:none" d="M 0,0 C -0.239,-0.344 -0.346,-0.895 -0.322,-1.618 L 0,-13.965 l -0.626,-0.218 -7.005,9.318 0.352,-11.677 -0.617,-0.211 -7.815,10.358 c -0.559,0.625 -1.112,0.848 -1.632,0.667 l -0.488,-0.174 -0.21,0.627 5.566,1.968 0.22,-0.621 -0.867,-0.296 c -0.487,-0.182 -0.626,-0.49 -0.473,-0.925 0.17,-0.453 1.92,-2.74 5.551,-7.501 l -0.221,8.632 c -0.673,0.753 -1.276,1.049 -1.802,0.865 l -0.566,-0.2 -0.214,0.612 5.409,1.908 0.221,-0.604 -0.708,-0.246 c -0.486,-0.171 -0.644,-0.405 -0.551,-0.692 0.053,-0.161 0.202,-0.377 0.433,-0.684 l 5.307,-7.087 -0.233,8.382 c -0.022,0.441 -0.086,0.761 -0.15,0.964 -0.235,0.456 -0.68,0.561 -1.367,0.327 L -3.188,-0.724 -3.402,-0.112 0.743,1.351 0.948,0.736 C 0.509,0.589 0.193,0.323 0,0"/>
  <path transform="matrix(0.923766,0,0,-0.923766,84.9877,5.4552)" style="fill:#231916;fill-opacity:1;fill-rule:nonzero;stroke:none" d="m 0,0 -1.937,-7.608 6.173,0.875 z m 4.607,-12.417 -0.091,0.634 0.741,0.114 c 0.464,0.06 0.806,0.223 1.03,0.446 0.148,0.211 0.205,0.418 0.168,0.664 -0.01,0.099 -0.076,0.273 -0.249,0.532 l -1.655,2.709 -6.653,-0.941 c -0.347,-1.459 -0.559,-2.39 -0.609,-2.807 -0.015,-0.192 -0.015,-0.373 0.012,-0.549 0.051,-0.367 0.153,-0.611 0.337,-0.749 0.289,-0.187 0.733,-0.278 1.375,-0.187 l 0.497,0.073 0.091,-0.646 -5.505,-0.784 -0.097,0.633 0.433,0.067 c 0.545,0.082 1.039,0.393 1.447,0.844 0.249,0.375 0.588,1.015 0.819,1.922 L -0.514,0.648 1.495,1.95 8.84,-9.738 c 0.555,-0.857 1.441,-1.179 2.508,-1.074 l 0.09,-0.634 z"/>
  <path transform="matrix(0.923766,0,0,-0.923766,192.2861,118.6692)" style="fill:#231916;fill-opacity:1;fill-rule:nonzero;stroke:none" d="M 0,0 C 0.896,0.402 1.682,0.979 2.311,1.793 2.979,2.697 3.343,3.711 3.45,4.768 L 3.68,7.172 C 3.757,8.002 3.315,8.443 2.383,8.531 L -2.104,8.968 -2.4,5.812 C -2.458,5.269 -2.318,4.783 -1.996,4.371 -1.624,4.014 -1.119,3.792 -0.466,3.73 l -0.063,-0.59 -4.934,0.463 0.057,0.603 c 0.726,-0.064 1.284,0.048 1.683,0.325 0.4,0.347 0.64,0.799 0.694,1.343 L -2.728,9.028 -7.56,9.481 C -8.526,9.585 -9.091,9.203 -9.178,8.31 l -0.071,-0.821 -0.653,0.059 0.663,6.775 0.637,-0.064 -0.076,-0.819 c -0.084,-0.84 0.372,-1.377 1.282,-1.467 L 2.629,11.025 c 0.924,-0.096 1.452,0.315 1.527,1.09 L 4.238,13.022 4.886,12.97 3.69,0.569 0.09,-0.592 Z"/>
  <path transform="matrix(0.923766,0,0,-0.923766,190.3502,136.4318)" style="fill:#231916;fill-opacity:1;fill-rule:nonzero;stroke:none" d="m 0,0 c 0.283,0.959 -0.146,1.599 -1.229,1.914 l -6.667,1.982 c -1.708,0.508 -2.811,1.524 -3.322,2.959 -0.459,1.364 -0.459,2.875 0,4.429 0.511,1.719 1.402,3.079 2.602,4.081 1.097,0.922 2.707,1.023 4.799,0.407 l 6.443,-1.918 c 0.884,-0.265 1.512,0.133 1.779,1.029 L 4.593,15.525 5.216,15.346 3.297,8.876 2.681,9.063 2.936,9.931 c 0.244,0.834 -0.105,1.353 -0.992,1.618 l -6.913,2.04 c -1.39,0.417 -2.512,0.482 -3.392,0.145 -1.048,-0.411 -1.871,-1.338 -2.306,-2.796 -0.402,-1.384 -0.326,-2.77 0.1,-4.096 0.487,-1.061 1.444,-1.887 2.92,-2.329 l 6.607,-1.95 c 1.086,-0.328 1.798,0.02 2.054,0.865 l 0.19,0.631 0.609,-0.191 -1.382,-4.677 -0.627,0.181 z"/>
  <path transform="matrix(0.923766,0,0,-0.923766,173.8867,141.4711)" style="fill:#231916;fill-opacity:1;fill-rule:nonzero;stroke:none" d="M 0,0 0.556,-0.307 0.248,-0.908 c -0.37,-0.671 -0.343,-1.14 -0.036,-1.39 0.247,-0.13 0.695,-0.144 1.309,-0.043 L 8.043,-1.219 7.352,1.702 4.166,3.396 C 3.37,3.837 2.714,3.694 2.286,2.902 L 1.899,2.179 1.33,2.48 4.546,8.473 5.116,8.165 4.766,7.515 C 4.352,6.745 4.543,6.03 5.348,5.6 l 8.944,-4.792 c 0.785,-0.427 1.415,-0.192 1.789,0.524 l 0.404,0.734 0.565,-0.299 -3.172,-5.925 -0.57,0.304 0.393,0.737 c 0.388,0.74 0.195,1.304 -0.589,1.734 l -4.924,2.625 1.76,-7.709 c 0.201,-0.545 0.388,-0.922 0.575,-1.062 0.439,-0.189 0.844,0.073 1.216,0.749 l 0.238,0.455 0.57,-0.313 -2.985,-5.55 -0.573,0.295 c 0.387,0.719 0.596,1.402 0.681,2.079 0.073,0.576 0.042,1.263 -0.149,2.067 L 8.53,-3.465 -0.413,-4.959 C -1.448,-5.125 -2.241,-5.625 -2.817,-6.59 l -0.564,0.292 z"/>
  <path transform="matrix(0.923766,0,0,-0.923766,170.8059,166.8715)" style="fill:#231916;fill-opacity:1;fill-rule:nonzero;stroke:none" d="m 0,0 c 0.637,0.774 0.497,1.526 -0.376,2.238 l -5.355,4.435 c -1.375,1.14 -2,2.512 -1.895,4.038 0.116,1.424 0.708,2.811 1.738,4.061 1.144,1.387 2.49,2.291 3.992,2.732 1.371,0.418 2.897,-0.114 4.576,-1.517 L 7.854,11.72 c 0.718,-0.606 1.435,-0.478 2.04,0.239 l 0.421,0.514 0.497,-0.412 L 6.521,6.873 6.018,7.277 6.61,7.983 C 7.143,8.646 7.037,9.262 6.315,9.86 l -5.542,4.581 c -1.124,0.929 -2.138,1.431 -3.076,1.464 -1.116,0.042 -2.243,-0.501 -3.21,-1.662 C -6.438,13.125 -6.91,11.819 -7.03,10.438 -6.999,9.277 -6.456,8.125 -5.261,7.144 L 0.051,2.753 C 0.923,2.028 1.711,2.072 2.275,2.746 l 0.42,0.505 0.493,-0.416 -3.106,-3.763 -0.495,0.422 z"/>
  <path transform="matrix(0.923766,0,0,-0.923766,152.5670,166.2355)" style="fill:#231916;fill-opacity:1;fill-rule:nonzero;stroke:none" d="m 0,0 8.617,7.409 0.371,-0.422 1.283,-16.009 2.327,2 c 1.072,0.918 1.684,1.713 1.933,2.382 0.329,0.916 0.457,2.044 0.34,3.385 l 0.554,0.278 1.187,-3.444 L 8.566,-11.353 8.25,-10.978 6.79,5.099 4.027,2.727 C 3.212,2.021 2.647,1.219 2.284,0.38 1.952,-0.604 1.862,-1.902 2.008,-3.464 l -0.55,-0.264 z"/>
  <path transform="matrix(0.923766,0,0,-0.923766,151.6486,181.2079)" style="fill:#231916;fill-opacity:1;fill-rule:nonzero;stroke:none" d="m 0,0 -1.195,7.755 -5.33,-3.21 z M -9.096,9.634 -8.761,9.067 -9.398,8.69 c -0.403,-0.248 -0.663,-0.508 -0.778,-0.816 -0.053,-0.25 -0.024,-0.471 0.111,-0.681 0.046,-0.08 0.183,-0.217 0.436,-0.387 l 2.579,-1.847 5.751,3.465 c -0.247,1.484 -0.412,2.418 -0.527,2.825 -0.058,0.172 -0.132,0.345 -0.229,0.503 -0.186,0.311 -0.379,0.497 -0.613,0.557 -0.334,0.055 -0.787,-0.031 -1.329,-0.355 L -4.433,11.693 -4.768,12.238 0,15.12 0.338,14.57 -0.03,14.337 c -0.473,-0.283 -0.809,-0.76 -1.013,-1.341 -0.072,-0.433 -0.13,-1.173 0,-2.097 L 0.733,-0.392 -0.605,-2.38 -11.938,5.503 c -0.841,0.587 -1.791,0.527 -2.726,0.017 l -0.335,0.551 z"/>
  <path transform="matrix(0.923766,0,0,-0.923766,125.5396,192.9439)" style="fill:#231916;fill-opacity:1;fill-rule:nonzero;stroke:none" d="M 0,0 C 0.244,0.331 0.341,0.887 0.314,1.608 L -0.004,13.961 0.622,14.177 7.624,4.856 7.273,16.537 7.898,16.753 15.708,6.375 C 16.26,5.761 16.821,5.539 17.34,5.722 l 0.489,0.165 0.206,-0.615 -5.573,-1.962 -0.208,0.619 0.869,0.307 c 0.477,0.159 0.627,0.475 0.459,0.902 -0.158,0.465 -1.907,2.744 -5.545,7.5 L 8.27,4.016 c 0.664,-0.754 1.275,-1.05 1.784,-0.87 l 0.571,0.2 L 10.849,2.738 5.434,0.832 5.22,1.431 5.918,1.68 C 6.4,1.851 6.571,2.079 6.465,2.369 6.414,2.521 6.269,2.751 6.043,3.063 L 0.733,10.142 0.962,1.754 C 0.985,1.308 1.05,0.993 1.125,0.8 1.348,0.348 1.799,0.22 2.484,0.467 l 0.704,0.245 0.214,-0.606 -4.14,-1.46 -0.218,0.609 C -0.51,-0.59 -0.192,-0.329 0,0"/>
  <path transform="matrix(0.923766,0,0,-0.923766,114.9983,194.5682)" style="fill:#231916;fill-opacity:1;fill-rule:nonzero;stroke:none" d="M 0,0 1.935,7.609 -4.227,6.733 Z m -4.601,12.417 0.089,-0.645 -0.734,-0.097 c -0.468,-0.073 -0.815,-0.217 -1.04,-0.449 -0.138,-0.213 -0.202,-0.431 -0.167,-0.665 0.019,-0.095 0.08,-0.264 0.242,-0.534 l 1.661,-2.711 6.656,0.95 c 0.349,1.458 0.568,2.396 0.615,2.812 0.017,0.17 0.01,0.357 -0.016,0.544 -0.053,0.356 -0.154,0.601 -0.347,0.748 -0.283,0.178 -0.724,0.281 -1.357,0.181 L 0.487,12.49 0.402,13.122 5.915,13.909 5.998,13.269 5.582,13.205 C 5.032,13.129 4.542,12.814 4.126,12.377 3.88,11.99 3.537,11.351 3.306,10.43 L 0.529,-0.639 -1.487,-1.948 -8.836,9.734 c -0.552,0.874 -1.439,1.183 -2.5,1.086 l -0.081,0.628 z"/>
</svg>